<svg version="1.1" xmlns="http://www.w3.org/2000/svg" viewBox="0 0 100 100" fill="currentColor" class="Icon_svgicon__cZMHq "><path d="M92.3 79.86a44.17 44.17 0 0 0-36.36-42.8 6.73 6.73 0 0 0 .06-.91 7.23 7.23 0 1 0-14.45 0 6.73 6.73 0 0 0 .06.91A43.47 43.47 0 0 0 5.52 79.88v2.91H92.3Zm-81-2.81a37.61 37.61 0 0 1 75 0Zm37.4-42.19a1.43 1.43 0 0 1 1.4 1.41 1 1 0 0 1-.06.35h-2.71a2 2 0 0 1 0-.35 1.4 1.4 0 0 1 1.35-1.41Z"></path><path d="M42 45.29a2.58 2.58 0 0 0-2.14 0C27.58 50.42 18.62 60.47 15.87 72.1a2.67 2.67 0 0 0 2 3.38h.63a2.73 2.73 0 0 0 2.65-2.17c2.36-9.9 10.11-18.44 20.68-22.84a2.75 2.75 0 0 0 1.6-1.5 2.64 2.64 0 0 0 0-2.1A2.76 2.76 0 0 0 42 45.29ZM99.69 86.8a3.42 3.42 0 0 0-3-1.8H3.35A3.45 3.45 0 0 0 .3 86.86a3.55 3.55 0 0 0 .37 3.5l4.79 8.22a4.49 4.49 0 0 0 3.35 1.58h82.37a4.47 4.47 0 0 0 3.36-1.62l4.81-8.25a3.55 3.55 0 0 0 .34-3.49ZM93 90.54l-2.5 3.92h-81L7 90.48ZM49.67 20.6a2.93 2.93 0 0 0 2.78-2.91V2.51a2.72 2.72 0 0 0-2.78-2.67 2.76 2.76 0 0 0-2.79 2.79v15.16a2.74 2.74 0 0 0 2.79 2.81ZM27.7 24a2.77 2.77 0 0 0 2.42 1.43A3 3 0 0 0 31.5 25a2.72 2.72 0 0 0 1-3.82L25 8a2.77 2.77 0 0 0-1.7-1.32 2.83 2.83 0 0 0-2.1.29 2.75 2.75 0 0 0-1 3.82ZM67.69 25h.06a3.27 3.27 0 0 0 1.33.36A2.78 2.78 0 0 0 71.49 24l7.56-13.2a2.71 2.71 0 0 0 .29-2.09A2.74 2.74 0 0 0 78 7a2.74 2.74 0 0 0-3.8 1l-7.52 13.19a2.78 2.78 0 0 0-.3 2.1A2.66 2.66 0 0 0 67.69 25Z"></path></svg>