<svg version="1.1" xmlns="http://www.w3.org/2000/svg" viewBox="0 0 100 100" fill="currentColor" class="Icon_svgicon__cZMHq "><path d="M84.29 43.62A3.28 3.28 0 1 0 81 40.35a3.26 3.26 0 0 0 3.29 3.27Z"></path><circle cx="37.66" cy="16.15" r="3.28"></circle><path d="M49.66 19.4a3.28 3.28 0 1 0-3.27-3.27 3.27 3.27 0 0 0 3.27 3.27Z"></path><circle cx="60.97" cy="16.15" r="3.28"></circle><path d="M84.29 55.23A3.28 3.28 0 1 0 81 52a3.27 3.27 0 0 0 3.29 3.23Z"></path><path d="M97 0H3.38A3.38 3.38 0 0 0 0 3.38v93.24A3.39 3.39 0 0 0 3.38 100h93.24a3.39 3.39 0 0 0 3.38-3.38V3.38A3.33 3.33 0 0 0 97 0ZM46.62 93.25H31.19V32.31h15.43Zm22.21 0H53.4V32.31h15.43Zm24.42 0H75.58V28.94a3.4 3.4 0 0 0-3.14-3.4H27.79a3.39 3.39 0 0 0-3.37 3.38v64.31H6.77V6.75h86.5v86.5Z"></path></svg>