<svg version="1.1" xmlns="http://www.w3.org/2000/svg" viewBox="0 0 100 100" fill="currentColor" class="Icon_svgicon__cZMHq "><path d="M3.7 100a3.65 3.65 0 0 0 3.65-3.64v-11.5H38.7v3.42a.39.39 0 0 1 0 .16v7.92a3.64 3.64 0 0 0 3.66 3.64A3.64 3.64 0 0 0 46 96.36v-11.5h29.29v11.48a3.64 3.64 0 0 0 3.64 3.66 3.64 3.64 0 0 0 3.64-3.64v-11.5h10.1v11.48a3.65 3.65 0 0 0 3.67 3.66 3.64 3.64 0 0 0 3.66-3.66V5.73C100 .75 97.72 0 96.36 0H3.64C2.26 0 0 .75 0 5.73l.08 90.63A3.6 3.6 0 0 0 3.7 100Zm88.93-47.79h-9.86V34h9.88v18.21Zm-10.08-45h10.1v19.55h-10.1Zm0 52.18h10.1v18.26h-10.1ZM25.8 77.67h-5.6V59.43h5.6Zm-5.61-25.46v-5.54h25v5.54ZM51.6 77.67H33.1V59.43h18.5Zm23.63 0H58.9V59.43h16.33Zm0-25.46h-5.6V34h5.6ZM46 7.23h29.21v19.53H46Zm-12.9 0h5.6v19.53h-5.6Zm-25.79 0h18.47v19.53H7.29ZM7.29 34h55v18.21h-9.85v-9.12a3.62 3.62 0 0 0-3.64-3.59H16.54a3.61 3.61 0 0 0-3.64 3.59v9.12H7.29Zm0 25.44h5.59v18.21H7.29Z"></path></svg>