<svg version="1.1" xmlns="http://www.w3.org/2000/svg" viewBox="0 0 100 100" fill="currentColor" class="Icon_svgicon__cZMHq "><path d="M96.55 48.82H49.2v-6.46h16.63a5.77 5.77 0 0 0 5.76-5.75V5.75A5.75 5.75 0 0 0 65.83 0H14.27A5.77 5.77 0 0 0 8.5 5.75v30.86a5.76 5.76 0 0 0 5.77 5.75h16.51v6.46H3.45a3.4 3.4 0 1 0 0 6.79h4.06v40.91a3.47 3.47 0 0 0 3.36 3.48 3.41 3.41 0 0 0 3.4-3.4v-41h41.47v38.65A5.75 5.75 0 0 0 61.5 100h25.73A5.77 5.77 0 0 0 93 94.25V55.61h3.55a3.4 3.4 0 1 0 0-6.79Zm-34 13.9v-7.09h23.87v7.09ZM86.44 85v8.34H62.57V85Zm-23.89-6.68v-8.83h23.87v8.83Zm2.37-71.65v29H15.2v-29ZM37.47 42.36h5.06v6.46h-5.06Z"></path></svg>