<svg version="1.1" xmlns="http://www.w3.org/2000/svg" viewBox="0 0 100 100" fill="currentColor" class="Icon_svgicon__cZMHq "><path d="M92.71 46.89h-.55V9.22A9.18 9.18 0 0 0 83 .08a9.07 9.07 0 0 0-6.5 2.68l-4 4a3.43 3.43 0 0 0-2.54-.58l-13.19 4.61a3.48 3.48 0 0 0-2 5.85L67 29a3.48 3.48 0 0 0 3.48.92 3.42 3.42 0 0 0 2.44-2.64l5-13a3.52 3.52 0 0 0-.55-2.66l4-4A2.25 2.25 0 0 1 83 7a2.22 2.22 0 0 1 2.19 2.2v37.67H61.62a10.87 10.87 0 0 0-21.74 0H7.7c-4.16 0-7.7 4.33-7.7 8.47 0 3 2.52 7 5.38 8.19L9.93 80.7a15.77 15.77 0 0 0 12.46 11L20.78 95a3.38 3.38 0 0 0-.2 2.64 3.53 3.53 0 0 0 1.77 2 3.63 3.63 0 0 0 1.56.35A3.46 3.46 0 0 0 27 98.07L30.09 92h40.23l3.09 6.12a3.49 3.49 0 0 0 3.12 1.88 3.72 3.72 0 0 0 1.55-.35 3.47 3.47 0 0 0 1.75-2 3.41 3.41 0 0 0-.19-2.65L78 91.77a15.8 15.8 0 0 0 12.47-11l5-17.39c2.86-1.12 4.53-5.08 4.53-8.15 0-4.17-3.13-8.34-7.29-8.34ZM68.83 22.45 61.5 15l7.84-2.6 2.07 1.95ZM50.75 42.36a4.74 4.74 0 0 1 4.74 4.53H46a4.78 4.78 0 0 1 4.75-4.53Zm33 36.43A8.68 8.68 0 0 1 75.46 85H25a8.7 8.7 0 0 1-8.33-6.22l-4.31-15h75.73Zm8.92-22.17a.28.28 0 0 1-.29.29H8a.29.29 0 0 1-.29-.29v-2.48a.29.29 0 0 1 .29-.3h84.42a.29.29 0 0 1 .29.3Z"></path><path d="M31.19 40.31a10.87 10.87 0 1 0-10.87-10.87 10.89 10.89 0 0 0 10.87 10.87Zm0-15.63a4.77 4.77 0 1 1-4.76 4.76 4.77 4.77 0 0 1 4.76-4.76Z"></path></svg>