<?xml version="1.0" encoding="iso-8859-1"?>
<!-- Uploaded to: SVG Repo, www.svgrepo.com, Generator: SVG Repo Mixer Tools -->
<svg fill="#000000" height="800px" width="800px" version="1.1" id="Layer_1" xmlns="http://www.w3.org/2000/svg" xmlns:xlink="http://www.w3.org/1999/xlink" 
	 viewBox="0 0 512.001 512.001" xml:space="preserve">
<g>
	<g>
		<path d="M256,237.13c-39.115,0-70.938,31.823-70.938,70.938s31.823,70.938,70.938,70.938s70.938-31.823,70.938-70.938
			S295.115,237.13,256,237.13z M256,353.939c-25.293,0-45.871-20.577-45.871-45.871c0-25.294,20.578-45.871,45.871-45.871
			s45.871,20.578,45.871,45.871S281.293,353.939,256,353.939z"/>
	</g>
</g>
<g>
	<g>
		<path d="M473.963,150.783c-15.997-3.492-36.305-5.656-58.159-6.259v-9.74c0-6.922-5.613-12.534-12.534-12.534
			s-12.534,5.611-12.534,12.534v9.74c-21.855,0.603-42.162,2.769-58.159,6.259c-12.282,2.68-27.602,7.128-34.445,16.333
			c-9.502-2.845-19.403-4.754-29.599-5.619v-20.385h78.335c6.921,0,12.534-5.611,12.534-12.534V54.312
			c0-6.922-5.613-12.534-12.534-12.534H165.131c-6.921,0-12.534,5.611-12.534,12.534v74.266c0,6.922,5.613,12.534,12.534,12.534
			h78.335v20.385c-10.196,0.865-20.098,2.774-29.599,5.619c-6.842-9.205-22.163-13.653-34.445-16.333
			c-15.997-3.492-36.305-5.656-58.159-6.259v-9.74c0-6.922-5.613-12.534-12.534-12.534s-12.534,5.611-12.534,12.534v9.74
			c-21.855,0.603-42.162,2.769-58.159,6.259C21.707,154.345,0,161.031,0,177.872c0,16.841,21.707,23.527,38.037,27.09
			c15.997,3.492,36.305,5.656,58.159,6.259v172.972l-45.262,66.437c-3.897,5.72-2.419,13.518,3.303,17.415
			c5.718,3.897,13.516,2.42,17.416-3.301l37.078-54.425l37.078,54.425c2.427,3.561,6.363,5.478,10.369,5.478
			c2.429,0,4.886-0.706,7.045-2.177c5.72-3.897,7.199-11.694,3.303-17.415l-45.263-66.437V367.09
			c22.786,51.813,74.6,88.088,134.737,88.088s111.951-36.275,134.737-88.088v17.103l-45.262,66.437
			c-3.897,5.72-2.419,13.518,3.303,17.415c5.719,3.897,13.516,2.42,17.415-3.301l37.078-54.425l37.078,54.425
			c2.427,3.561,6.363,5.478,10.369,5.478c2.429,0,4.886-0.706,7.045-2.177c5.72-3.897,7.199-11.694,3.303-17.415l-45.262-66.437
			V211.222c21.855-0.603,42.162-2.767,58.159-6.259c16.329-3.563,38.037-10.249,38.037-27.09
			C512.001,161.031,490.293,154.345,473.963,150.783z M96.196,186.156c-30.034-0.851-51.385-4.662-63.008-8.284
			c11.624-3.62,32.974-7.432,63.008-8.283V186.156z M177.665,116.045v-12.066h79.918c6.921,0,12.534-5.611,12.534-12.534
			s-5.613-12.534-12.534-12.534h-79.918V66.846h156.671v49.198H177.665z M121.263,169.589c30.034,0.851,51.385,4.664,63.008,8.284
			c-11.624,3.62-32.974,7.432-63.008,8.284V169.589z M121.263,211.222c8.774-0.242,17.301-0.732,25.396-1.463
			c-10.427,11.585-19.039,24.83-25.396,39.286V211.222z M256,430.112c-67.294,0-122.044-54.748-122.044-122.044
			S188.706,186.023,256,186.023s122.044,54.75,122.044,122.045S323.294,430.112,256,430.112z M390.737,249.044
			c-6.357-14.455-14.969-27.701-25.396-39.286c8.094,0.732,16.622,1.221,25.396,1.463V249.044z M390.737,186.156
			c-30.034-0.851-51.385-4.664-63.008-8.283c11.622-3.62,32.974-7.432,63.008-8.284V186.156z M415.804,186.156v-16.567
			c30.034,0.851,51.385,4.664,63.008,8.283C467.19,181.493,445.839,185.305,415.804,186.156z"/>
	</g>
</g>
<g>
	<g>
		<path d="M307.474,89.001c-0.163-0.802-0.4-1.592-0.713-2.356c-0.313-0.752-0.703-1.479-1.153-2.156
			c-0.464-0.689-0.99-1.329-1.567-1.905c-0.577-0.577-1.217-1.103-1.906-1.567c-0.677-0.451-1.404-0.84-2.156-1.141
			c-0.765-0.313-1.542-0.564-2.344-0.714c-1.617-0.326-3.284-0.326-4.901,0c-0.802,0.15-1.592,0.401-2.344,0.714
			c-0.763,0.301-1.49,0.689-2.167,1.141c-0.689,0.464-1.33,0.99-1.906,1.567c-0.577,0.577-1.103,1.216-1.553,1.905
			c-0.451,0.677-0.84,1.404-1.153,2.156c-0.313,0.765-0.552,1.554-0.714,2.356c-0.163,0.802-0.251,1.629-0.251,2.444
			c0,0.815,0.088,1.642,0.251,2.444c0.163,0.802,0.401,1.592,0.714,2.344c0.313,0.765,0.702,1.492,1.153,2.168
			c0.45,0.689,0.976,1.329,1.553,1.905s1.217,1.103,1.906,1.554c0.677,0.451,1.404,0.84,2.167,1.153
			c0.753,0.313,1.542,0.564,2.344,0.714c0.803,0.163,1.629,0.251,2.444,0.251c0.827,0,1.642-0.088,2.457-0.251
			c0.802-0.15,1.579-0.401,2.344-0.714c0.752-0.313,1.479-0.702,2.156-1.153c0.689-0.451,1.33-0.978,1.906-1.554
			s1.103-1.216,1.567-1.905c0.45-0.677,0.84-1.404,1.153-2.168c0.313-0.752,0.55-1.542,0.713-2.344
			c0.164-0.802,0.238-1.629,0.238-2.444C307.713,90.63,307.637,89.803,307.474,89.001z"/>
	</g>
</g>
</svg>