<svg version="1.1" xmlns="http://www.w3.org/2000/svg" viewBox="0 0 100 100" fill="currentColor" class="Icon_svgicon__cZMHq "><path d="M30.63 81.92a2.9 2.9 0 0 0-2.52 2.87v1.11a2.94 2.94 0 0 0 2.83 2.89 2.71 2.71 0 0 0 2-.88 2.76 2.76 0 0 0 .84-2V84.8a2.87 2.87 0 0 0-.95-2.11 2.84 2.84 0 0 0-2.2-.77ZM22.76 75.18a2.9 2.9 0 0 0-2.52 2.87v1.11a2.94 2.94 0 0 0 2.83 2.89 2.94 2.94 0 0 0 2.81-2.87v-1.11a2.81 2.81 0 0 0-.95-2.07 2.75 2.75 0 0 0-2.17-.82Z"></path><path d="M39.34 70.76v-.15a5.39 5.39 0 0 0-.64-1.84 4.76 4.76 0 0 0-1.54-1.52v-7.12a2.93 2.93 0 0 0-2.84-2.85h-9.55v-51a2.83 2.83 0 1 0-5.66 0v51H9.36a2.91 2.91 0 0 0-2.58 2.83v7.1a4.45 4.45 0 0 0-1.53 1.52 5.7 5.7 0 0 0-.64 1.84L.1 93.17a2.8 2.8 0 0 0 .64 2.34 2.74 2.74 0 0 0 2.15 1.07h38.17a2.92 2.92 0 0 0 2.79-3.39Zm-26.88-4.51V63H31.47v3.29Zm5.59 12a2.87 2.87 0 0 0-.91-2.25 2.76 2.76 0 0 0-2.34-.8 2.89 2.89 0 0 0-2.43 2.65l-1 13.09h-5l3.78-18.84a32 32 0 0 1 4-.19h14v5a2.94 2.94 0 0 0 2.83 2.88 2.77 2.77 0 0 0 2-.88 2.72 2.72 0 0 0 .84-2v-4.8l3.76 18.81H17.1ZM62 65.87A2.78 2.78 0 0 0 57.28 68v10.05a7.31 7.31 0 0 0 7.32 7.32h5.64a2.93 2.93 0 0 0 2-.8 2.88 2.88 0 0 0 .87-2 2.92 2.92 0 0 0-2.85-2.83H64.6c-.47 0-1.66-1.12-1.66-1.67V68a2.85 2.85 0 0 0-.94-2.13Z"></path><path d="M99.9 45a19.24 19.24 0 0 0-6.39-11.23 18.64 18.64 0 0 0-12.11-4.52H62.34a18.66 18.66 0 0 0-12.11 4.55 19.23 19.23 0 0 0-6.39 11.27 2.91 2.91 0 0 0 2.79 3.3h1.66v29.7a16.89 16.89 0 0 0 4.33 11.54 14.55 14.55 0 0 0 10.85 4.73h16.84a14.82 14.82 0 0 0 10.9-4.75 17 17 0 0 0 4.33-11.54V63.49a2.85 2.85 0 0 0-.84-2 2.88 2.88 0 0 0-2-.87 2.78 2.78 0 0 0-2 .87 2.68 2.68 0 0 0-.84 2v14.6c0 6.35-3.84 10.61-9.52 10.61H63.52c-5.68 0-9.51-4.26-9.51-10.61V48.37h35.77v6.12a2.89 2.89 0 0 0 .84 2 2.84 2.84 0 0 0 2 .87 2.8 2.8 0 0 0 2-.87 2.76 2.76 0 0 0 .84-2v-6.12h1.66a2.86 2.86 0 0 0 2.15-1.06A2.69 2.69 0 0 0 99.9 45ZM62.37 34.91h19.07a13 13 0 0 1 11.67 7.8H50.7a12.92 12.92 0 0 1 11.67-7.8Z"></path></svg>