<svg version="1.1" xmlns="http://www.w3.org/2000/svg" viewBox="0 0 100 100" fill="currentColor" class="Icon_svgicon__cZMHq "><path d="M86.44 16.27h-.1L69.42 5.55a36.86 36.86 0 0 0-38.9 0l-17 10.72a9.43 9.43 0 0 0-8.44 9.51V29a9.52 9.52 0 0 0 8 9.51h.08L18 43.35v24.36a32 32 0 1 0 64 0V43.43l4.81-4.86h.08a9.52 9.52 0 0 0 8-9.51v-3.28a9.49 9.49 0 0 0-8.45-9.51ZM73.78 59.91 73 67.57a2.61 2.61 0 0 1-2.61 2.51H59.06c-1.44 0-2.66-4.76-3.22-8.75h7a18.78 18.78 0 0 0 10.22-3 2.23 2.23 0 0 1 .72 1.58Zm-47.6-2.07a18.75 18.75 0 0 0 10.89 3.49h5.76c-.55 4-1.77 8.75-3.21 8.75H28.27a2.62 2.62 0 0 1-2.61-2.49L24.89 60a2.37 2.37 0 0 1 1.29-2.16Zm49.44-12.46a13.15 13.15 0 0 1-12.73 9.95H37.07a13.17 13.17 0 0 1-12.73-9.95l-.08-.31H75.7ZM50 94a26.16 26.16 0 0 1-25.17-19.4 5.35 5.35 0 0 0 1.74.31h15.1c3.55 0 5.39-7.68 6.26-13.58h2.82c.89 5.88 2.7 13.58 6.26 13.58h15.1a5.21 5.21 0 0 0 3.23-1.12A26.16 26.16 0 0 1 50 94Zm38.94-65a3.5 3.5 0 0 1-3.47 3.51 2.88 2.88 0 0 0-2.11.87l-5.57 5.65H22.17l-.08-.03-5.49-5.58a3 3 0 0 0-2.09-.87A3.5 3.5 0 0 1 11 29v-3.22a3.5 3.5 0 0 1 3.47-3.51 3.13 3.13 0 0 0 1.62-.45l17.61-11.1a30.92 30.92 0 0 1 32.52 0l17.65 11.1a3 3 0 0 0 1.56.45 3.5 3.5 0 0 1 3.47 3.51V29Z"></path><path d="M50 13a9.52 9.52 0 1 0 9.44 9.52A9.49 9.49 0 0 0 50 13Zm0 13a3.52 3.52 0 1 1 3.47-3.51A3.5 3.5 0 0 1 50 26Z"></path></svg>