<svg version="1.1" xmlns="http://www.w3.org/2000/svg" viewBox="0 0 100 100" fill="currentColor" class="Icon_svgicon__cZMHq "><path d="M31.22 63.88h-3.54v-3.5a3.51 3.51 0 0 0-7 0v3.5h-3.56a3.46 3.46 0 1 0 0 6.92h3.55v3.5a3.51 3.51 0 0 0 7 0v-3.5h3.54a3.46 3.46 0 1 0 0-6.92ZM73 62.19a3.76 3.76 0 1 0-3.8-3.76 3.76 3.76 0 0 0 3.8 3.76ZM65.53 62a3.77 3.77 0 1 0 3.8 3.76 3.78 3.78 0 0 0-3.8-3.76ZM73 69.3a3.76 3.76 0 1 0 3.8 3.76A3.77 3.77 0 0 0 73 69.3ZM80.36 62a3.77 3.77 0 1 0 3.8 3.76 3.78 3.78 0 0 0-3.8-3.76Z"></path><path d="M95.84 58.25v-.1C91.6 49.86 84.91 44 77.4 41.93a19.3 19.3 0 0 0-8.4-.28 18.16 18.16 0 0 0-3.9 1.2 6 6 0 0 0-.57.28 7.84 7.84 0 0 0-7.78-6.7H54v-6.32a4.34 4.34 0 0 0-4.31-4.31l-14.89-.2a1.52 1.52 0 1 1 0-3h35.55a6.26 6.26 0 0 0 6.29-6.23V3.46a3.49 3.49 0 0 0-7 0v10.28a1.93 1.93 0 0 1-1.94 1.93H34.81a8.43 8.43 0 1 0-.1 16.86l12.29.16v3.74h-2.42A7.85 7.85 0 0 0 36.82 43a17.85 17.85 0 0 0-13.89-1.62C15.39 43.4 8.58 49.45 4.26 58-3.16 72.59-.64 90.1 9.9 97.05a18 18 0 0 0 9.88 3 19.42 19.42 0 0 0 5-.67 26.42 26.42 0 0 0 10.6-5.88A35.07 35.07 0 0 0 40 88.58c.71-.93 1.38-1.91 2-2.9s.86-1.68 2-2.06a21.46 21.46 0 0 1 4.49-.93 20.92 20.92 0 0 1 5.91.24 8.27 8.27 0 0 1 2.82.73 5.7 5.7 0 0 1 1.91 2.24 39.19 39.19 0 0 0 4.65 5.93 26.82 26.82 0 0 0 11.5 7.36l.49.14A17.72 17.72 0 0 0 90.42 97c10.22-6.71 12.64-24.37 5.42-38.75ZM44.58 43h12.17A1.21 1.21 0 0 1 58 44.21a1.2 1.2 0 0 1-1.2 1.18H45.13l-.83-.16-.41-.07a1.17 1.17 0 0 1-.54-.95A1.24 1.24 0 0 1 44.58 43Zm41.61 47.94a10.47 10.47 0 0 1-8.67 1.26A18.41 18.41 0 0 1 69 86.73a32.79 32.79 0 0 1-3.43-4.26c-.93-1.37-1.42-3.09-2.7-4.23a9 9 0 0 0-3.7-1.56 39.6 39.6 0 0 0-3.88-1 29.47 29.47 0 0 0-6.15-.35 29 29 0 0 0-6.12.94c-1.77.47-3.88 1-5.32 2.21s-2.05 3-3.05 4.51a29.24 29.24 0 0 1-3.6 4.33 19.1 19.1 0 0 1-8.41 5 10.67 10.67 0 0 1-8.88-1.36c-7.47-4.88-8.85-18.17-3-29.64C14 54.79 19.19 50 24.69 48.56a13.37 13.37 0 0 1 3.22-.47 9.9 9.9 0 0 1 5.81 1.75l.75.38a46 46 0 0 0 31.3.57l1-.47a10.65 10.65 0 0 1 8.7-1.23c5.24 1.34 10.36 6 13.67 12.45 5.71 11.13 4.41 24.6-2.95 29.4Z"></path></svg>