<svg version="1.1" xmlns="http://www.w3.org/2000/svg" viewBox="0 0 100 100" fill="currentColor" class="Icon_svgicon__cZMHq "><path d="M99.8 44.88a4.07 4.07 0 0 0-4.06-4.08H84.39v-.53a5.76 5.76 0 0 0-5.76-5.76H6a5.76 5.76 0 0 0-5.8 5.76v5.89a42.07 42.07 0 0 0 25.62 38.75h-11a7.52 7.52 0 0 0-7.52 7.54 7.51 7.51 0 0 0 7.5 7.55h59a7.73 7.73 0 0 0 7.81-7.3 7.52 7.52 0 0 0-7.51-7.75H58.73a41.91 41.91 0 0 0 10-6C90.47 75.07 99.8 64.87 99.8 44.88Zm-15.41 2h9.24C93.13 59.86 88 67 76.41 70.78a41.89 41.89 0 0 0 7.98-23.85ZM42.3 82.13a36 36 0 0 1-36-36v-5.49h71.94v5.52A36 36 0 0 1 42.3 82.13Zm33.61 12.58H14.82a.41.41 0 0 1-.42-.41v-3.67a.41.41 0 0 1 .42-.41h61.09a.41.41 0 0 1 .42.41v3.65a.42.42 0 0 1-.42.43ZM57.39 13.08c-.93-2.92-1.72-5.46 0-8.7a2.79 2.79 0 0 0-.73-4 2.86 2.86 0 0 0-4 1.18c-3.08 5-1.83 9-.63 12.8l.08.28c1.12 3.57 2.19 6.94-.89 12.07a2.86 2.86 0 0 0-.2 2.94 2.8 2.8 0 0 0 2.39 1.38A2.72 2.72 0 0 0 56 29.55c4.31-7.2 2.75-12.13 1.39-16.47ZM46.83 16.87l-.47.14.47-.14c-.69-2.19-1.24-3.93 0-6.16a2.57 2.57 0 0 0-.71-3.66 2.62 2.62 0 0 0-3.65 1.06c-2.44 4-1.42 7.22-.53 10.08l.06.22c.85 2.7 1.58 5-.61 8.7a2.55 2.55 0 1 0 4.36 2.64c3.35-5.68 2.15-9.51 1.08-12.88ZM36.5 18.64l-.12-.35c-.53-1.72-.85-3 .06-4.68a2.58 2.58 0 0 0-.75-3.68A2.65 2.65 0 0 0 32 11c-2.21 3.61-1.3 6.49-.49 9.06v.17c.73 2.35 1.33 4.21-.49 7.24a2.67 2.67 0 0 0-.14 2.77 2.7 2.7 0 0 0 2.29 1.32 2.62 2.62 0 0 0 2.29-1.38c3.05-5.18 1.98-8.54 1.04-11.54Z"></path><path d="M31.25 68.56A27.89 27.89 0 0 1 18 52.93a3 3 0 1 0-5.56 2A33.63 33.63 0 0 0 28.59 73.8a3.6 3.6 0 0 0 1.83.52 2.75 2.75 0 0 0 1.52-.44 2.84 2.84 0 0 0 1.34-2.58 3.27 3.27 0 0 0-2.03-2.74Z"></path></svg>