<svg version="1.1" xmlns="http://www.w3.org/2000/svg" viewBox="0 0 100 100" fill="currentColor" class="Icon_svgicon__cZMHq "><path d="M65.69 18.33h-5.87a3.41 3.41 0 1 0 0 6.81h5.89a3.41 3.41 0 1 0 0-6.81ZM59.82 51.59h5.89a3.41 3.41 0 1 0 0-6.82h-5.89a3.41 3.41 0 0 0 0 6.82ZM59.82 78.07h5.89a3.41 3.41 0 1 0 0-6.82h-5.89a3.41 3.41 0 0 0 0 6.82ZM30.38 18.33h-5.87a3.41 3.41 0 1 0 0 6.81h5.89a3.4 3.4 0 0 0 3.41-3.41 3.44 3.44 0 0 0-3.43-3.4ZM24.51 51.59h5.89a3.41 3.41 0 1 0 0-6.82h-5.89a3.41 3.41 0 0 0 0 6.82ZM24.51 78.07h5.89a3.41 3.41 0 1 0 0-6.82h-5.89a3.41 3.41 0 0 0 0 6.82Z"></path><path d="M90.52 0H9.42A9.42 9.42 0 0 0 0 9.44v72.31a9.42 9.42 0 0 0 9.42 9.42h5v5.4a3.41 3.41 0 1 0 6.82 0v-5.4h6.31v5.26a3.41 3.41 0 1 0 6.81 0v-5.26h32v5.4a3.41 3.41 0 1 0 6.82 0v-5.4H82v5.4a3.41 3.41 0 0 0 3.44 3.43 3.38 3.38 0 0 0 3.35-3.41v-5.4h1.81a9.42 9.42 0 0 0 9.4-9.44V9.44A9.5 9.5 0 0 0 90.52 0ZM79.67 81.75A2.67 2.67 0 0 1 77 84.41H9.42a2.66 2.66 0 0 1-2.66-2.66v-17h72.91Zm0-23.8H6.78v-19.7h72.9Zm0-26.48H6.78v-22a2.66 2.66 0 0 1 2.66-2.69H77a2.64 2.64 0 0 1 2.64 2.66Zm13.5 50.28a2.66 2.66 0 0 1-2.66 2.66h-4.44a10 10 0 0 0 .37-2.66V9.44a10 10 0 0 0-.37-2.66h4.45a2.66 2.66 0 0 1 2.66 2.66Z"></path></svg>