<?xml version="1.0" encoding="iso-8859-1"?>
<!-- Uploaded to: SVG Repo, www.svgrepo.com, Generator: SVG Repo Mixer Tools -->
<svg fill="#000000" height="800px" width="800px" version="1.1" id="Layer_1" xmlns="http://www.w3.org/2000/svg" xmlns:xlink="http://www.w3.org/1999/xlink" 
	 viewBox="0 0 512 512" xml:space="preserve">
<g>
	<g>
		<path d="M493.792,170H484c-2.208,0-4,1.788-4,4c0,2.212,1.792,4,4,4h9.792c6.68,0,10.208,3.456,10.208,10v144.072
			c0,6.696-3.904,13.928-10.208,13.928H21.916C15.284,346,8,338.712,8,332.072V188c0-6.256,7.076-10,13.916-10H28
			c2.208,0,4-1.788,4-4c0-2.212-1.792-4-4-4h-6.084C11.144,170,0,176.736,0,188v144.072C0,343.136,10.856,354,21.916,354h471.876
			C505.188,354,512,342.852,512,332.072V188C512,177.068,504.852,170,493.792,170z"/>
	</g>
</g>
<g>
	<g>
		<path d="M484,158H28c-2.208,0-4,1.788-4,4v105.916C24,279.064,34.856,290,45.916,290h423.876C481.188,290,488,278.772,488,267.916
			V162C488,159.788,486.208,158,484,158z M480,267.916c0,6.776-3.904,14.084-10.208,14.084H45.916C39.416,282,32,274.5,32,267.916
			V166h448V267.916z"/>
	</g>
</g>
<g>
	<g>
		<path d="M476,302c-2.208,0-4,1.788-4,4v44c0,2.212,1.792,4,4,4s4-1.788,4-4v-44C480,303.788,478.208,302,476,302z"/>
	</g>
</g>
<g>
	<g>
		<path d="M36,302c-2.208,0-4,1.788-4,4v44c0,2.212,1.792,4,4,4s4-1.788,4-4v-44C40,303.788,38.208,302,36,302z"/>
	</g>
</g>
<g>
	<g>
		<path d="M508,302H4c-2.208,0-4,1.788-4,4c0,2.212,1.792,4,4,4h504c2.208,0,4-1.788,4-4C512,303.788,510.208,302,508,302z"/>
	</g>
</g>
<g>
	<g>
		<path d="M420,326H36c-2.208,0-4,1.788-4,4c0,2.212,1.792,4,4,4h384c2.208,0,4-1.788,4-4C424,327.788,422.208,326,420,326z"/>
	</g>
</g>
<g>
	<g>
		<path d="M476,326h-32c-2.208,0-4,1.788-4,4c0,2.212,1.792,4,4,4h32c2.208,0,4-1.788,4-4C480,327.788,478.208,326,476,326z"/>
	</g>
</g>
<g>
	<g>
		<path d="M276,314h-40c-2.208,0-4,1.788-4,4c0,2.212,1.792,4,4,4h40c2.208,0,4-1.788,4-4C280,315.788,278.208,314,276,314z"/>
	</g>
</g>
<g>
	<g>
		<path d="M216,314h-8c-2.208,0-4,1.788-4,4c0,2.212,1.792,4,4,4h8c2.208,0,4-1.788,4-4C220,315.788,218.208,314,216,314z"/>
	</g>
</g>
<g>
	<g>
		<path d="M304,314h-8c-2.208,0-4,1.788-4,4c0,2.212,1.792,4,4,4h8c2.208,0,4-1.788,4-4C308,315.788,306.208,314,304,314z"/>
	</g>
</g>
<g>
	<g>
		<path d="M460,182h-32c-2.208,0-4,1.788-4,4c0,2.212,1.792,4,4,4h28v8c0,2.212,1.792,4,4,4s4-1.788,4-4v-12
			C464,183.788,462.208,182,460,182z"/>
	</g>
</g>
<g>
	<g>
		<path d="M460,210c-2.208,0-4,1.788-4,4v12c0,2.212,1.792,4,4,4s4-1.788,4-4v-12C464,211.788,462.208,210,460,210z"/>
	</g>
</g>
</svg>