<svg version="1.1" xmlns="http://www.w3.org/2000/svg" viewBox="0 0 100 100" fill="currentColor" class="Icon_svgicon__cZMHq "><defs><style>.cls-1{fill:none}</style></defs><path d="M27.88 30.87h24.63v5.52H27.88zM15.14-8.62H33.4v19.53H15.14zM40.62-8.62h5.52v19.53h-5.52z" class="cls-1"></path><path d="M69.49 36.39V18.13H15.14v18.26h5.52v-9.13a3.61 3.61 0 0 1 3.61-3.61h31.84a3.61 3.61 0 0 1 3.61 3.61v9.13ZM89.45-8.62h9.98v19.53h-9.98zM89.66 18.13h9.77v18.26h-9.77zM89.45 43.6h9.98v18.26h-9.98zM53.35-8.62h28.87v19.53H53.35zM76.71 18.13h5.52v18.26h-5.52z" class="cls-1"></path><path d="M26.7 12.85a3.83 3.83 0 0 0-3.81 3.81v6.43a3.81 3.81 0 0 0 7.61 0v-6.43a3.81 3.81 0 0 0-3.8-3.81ZM26.7 59.05a3.82 3.82 0 0 0 3.8-3.81v-6.42a3.81 3.81 0 1 0-7.61 0v6.42a3.84 3.84 0 0 0 3.81 3.81Z"></path><path d="M86.93 3.29A9.47 9.47 0 0 0 79.67 0h-59.4A9.54 9.54 0 0 0 13 3.29a13.66 13.66 0 0 0-2.95 9.07v73.11c0 2.31 2.72 5.85 6.42 7.35v3.37a3.81 3.81 0 1 0 7.61 0v-2.64h35.3v2.63a3.81 3.81 0 0 0 7.62 0v-2.63h8.91v2.63a3.81 3.81 0 0 0 7.61 0V92.8c3.7-1.49 6.42-5 6.42-7.35V12.36a13.85 13.85 0 0 0-3.01-9.07Zm-69.28 6.94a2.62 2.62 0 0 1 2.62-2.62h42.9a2.62 2.62 0 0 1 2.62 2.62v21.93H17.65Zm48.14 29.52v43.59A2.62 2.62 0 0 1 63.17 86h-42.9a2.62 2.62 0 0 1-2.62-2.62V39.75Zm6.94-32.16h6.94a2.62 2.62 0 0 1 2.62 2.62v21.95h-8.91v-19.8a16.13 16.13 0 0 0-.65-4.77Zm9.56 32.16v43.59A2.62 2.62 0 0 1 79.67 86h-6.31a4 4 0 0 0 0-.49V39.75Z"></path></svg>