<svg version="1.1" xmlns="http://www.w3.org/2000/svg" viewBox="0 0 100 100" fill="currentColor" class="Icon_svgicon__cZMHq "><path d="M97.07 16.12H84.36v-2.56a13.15 13.15 0 0 0 3.56-.81 2.4 2.4 0 0 0 1.73-1.67 4.24 4.24 0 0 0-.12-1.5c-.47-2.38-.88-4.78-1.32-7.16A2.92 2.92 0 0 0 85.36 0H35.54a2.93 2.93 0 0 0-2.88 2.42l-1.39 7.89a2.91 2.91 0 0 0 2.87 3.44h2.13v2.33H2.93A2.94 2.94 0 0 0 0 19v77.8a2.94 2.94 0 0 0 2.93 3h94.14a2.94 2.94 0 0 0 2.93-3V19.05a2.93 2.93 0 0 0-2.93-2.93Zm-18.56-2.33v2.33H42.13v-2.33ZM37.64 7.91l.36-2h44.94l.35 2ZM94.14 22v71.94H5.84V22Z"></path><path d="M14.05 89.81h71.37a2.94 2.94 0 0 0 2.93-3V47a2.94 2.94 0 0 0-2.93-3H14.05a2.94 2.94 0 0 0-2.93 3v39.84a3 3 0 0 0 2.93 2.97Zm68.48-39.93v34H17v-34ZM20.6 40.26h59.33a2.94 2.94 0 0 0 2.93-2.95 3 3 0 0 0-3-2.93H20.6a2.94 2.94 0 0 0 0 5.88Z"></path><path d="M27 69a3 3 0 0 0 2.08-.87L40 57.14A2.93 2.93 0 0 0 40 53a3 3 0 0 0-4.13 0L25 63.93a3 3 0 0 0-.9 2.07 2.94 2.94 0 0 0 2.9 3ZM31.92 73.85a2.93 2.93 0 0 0 5 2.08L52.75 60a2.93 2.93 0 1 0-4.13-4.16L32.8 71.78a2.84 2.84 0 0 0-.88 2.07Z"></path><circle cx="33.47" cy="27.76" r="3.01"></circle><circle cx="43.72" cy="27.76" r="3.01"></circle><circle cx="53.99" cy="27.76" r="3.01"></circle><circle cx="64.27" cy="27.76" r="3.01"></circle></svg>