<?xml version="1.0" encoding="iso-8859-1"?>
<!-- Uploaded to: SVG Repo, www.svgrepo.com, Generator: SVG Repo Mixer Tools -->
<svg fill="#000000" height="800px" width="800px" version="1.1" id="Layer_1" xmlns="http://www.w3.org/2000/svg" xmlns:xlink="http://www.w3.org/1999/xlink" 
	 viewBox="0 0 508 508" xml:space="preserve">
<g>
	<g>
		<path d="M493.9,13.3h-49.5C444,5.9,437.9,0,430.4,0H292.6c-7.5,0-13.6,5.9-14,13.3h-49.1C229.1,5.9,223,0,215.4,0H77.7
			c-7.5,0-13.6,5.9-14,13.3H14.1C6.3,13.3,0,19.7,0,27.5v466.4c0,7.8,6.3,14.1,14.1,14.1h479.8c7.8,0,14.1-6.3,14.1-14.1V27.5
			C508,19.7,501.7,13.3,493.9,13.3z M28.2,41.6h451.6v90.3H28.2V41.6z M479.8,479.8H28.2V160.1h451.6V479.8z"/>
	</g>
</g>
<g>
	<g>
		<path d="M427.8,196.6H80.2c-7.8,0-14.1,6.3-14.1,14.1V439c0,7.8,6.3,14.1,14.1,14.1h347.5c7.8,0,14.1-6.3,14.1-14.1V210.7
			C441.9,203,435.6,196.6,427.8,196.6z M94.3,424.9v-200h319.3v200H94.3z"/>
	</g>
</g>
<g>
	<g>
		<path d="M107.5,72.8H96.6c-7.8,0-14.1,6.3-14.1,14.1c0,7.8,6.4,14.1,14.1,14.1h10.9c7.8,0,14.1-6.3,14.1-14.1
			C121.6,79.1,115.3,72.8,107.5,72.8z"/>
	</g>
</g>
<g>
	<g>
		<path d="M208.8,72.8h-10.9c-7.8,0-14.1,6.3-14.1,14.1c0,7.8,6.3,14.1,14.1,14.1h10.9c7.8,0,14.1-6.3,14.1-14.1
			C222.9,79.1,216.6,72.8,208.8,72.8z"/>
	</g>
</g>
<g>
	<g>
		<path d="M310.1,72.8h-10.9c-7.8,0-14.1,6.3-14.1,14.1c0,7.8,6.3,14.1,14.1,14.1h10.9c7.8,0,14.1-6.3,14.1-14.1
			C324.2,79.1,317.9,72.8,310.1,72.8z"/>
	</g>
</g>
<g>
	<g>
		<path d="M411.3,72.8h-10.9c-7.8,0-14.1,6.3-14.1,14.1c0,7.8,6.3,14.1,14.1,14.1h10.9c7.8,0,14.1-6.3,14.1-14.1
			C425.4,79.1,419.1,72.8,411.3,72.8z"/>
	</g>
</g>
<g>
	<g>
		<path d="M295.1,246.6h-82.2c-7.8,0-14.1,6.3-14.1,14.1c0,7.8,6.3,14.1,14.1,14.1h82.2c7.8,0,14.1-6.3,14.1-14.1
			C309.2,252.9,302.9,246.6,295.1,246.6z"/>
	</g>
</g>
</svg>