<svg version="1.1" xmlns="http://www.w3.org/2000/svg" viewBox="0 0 100 100" fill="currentColor" class="Icon_svgicon__cZMHq "><path d="m9.69 98.3 5.32-8h.08L69.92 96h.34a3.31 3.31 0 0 0 .63 0H72a21 21 0 0 0 13.3-4.73l.44-.35.08.07 7.82 7.79a3.78 3.78 0 0 0 5.32 0 3.74 3.74 0 0 0 0-5.28l-8.43-8.36.21-.41a20.75 20.75 0 0 0 1.64-15.27 21 21 0 0 0-9.94-12.66A21.24 21.24 0 0 0 72 54h-1.56l-.14-.45L59.87 19a3.74 3.74 0 0 0-3.54-2.64H44.76V3.77a3.77 3.77 0 0 0-7.53 0v16.3A3.78 3.78 0 0 0 41 23.83h12.47v.1l9.28 30.82h-.16l-44.53 4.61V46.27h7.39a3.75 3.75 0 1 0 0-7.5H9.31a3.75 3.75 0 1 0 0 7.5h1.22v13.78l-.41.16a15.35 15.35 0 0 0-8.36 7.29 15.33 15.33 0 0 0 5.29 20l.53.35-.08.15-4.08 6.14a3.75 3.75 0 0 0 1 5.22 4.05 4.05 0 0 0 2.84.57 3.91 3.91 0 0 0 2.43-1.63ZM72 61.45A13.56 13.56 0 1 1 58.38 75 13.61 13.61 0 0 1 72 61.45Zm-43.34 5.24-.51-.85h.2l26.12-2.74-.67 1.09a20.84 20.84 0 0 0 0 21.67l.67 1.14h-.25l-26.64-2.85.61-.87a15.26 15.26 0 0 0 .47-16.59Zm-21.1 7.92a7.91 7.91 0 0 1 13.5-5.54 7.92 7.92 0 0 1 0 11.1 7.92 7.92 0 0 1-13.5-5.56Z"></path></svg>