<?xml version="1.0" encoding="utf-8"?>

<!-- Uploaded to: SVG Repo, www.svgrepo.com, Generator: SVG Repo Mixer Tools -->
<svg version="1.1" id="Icons" xmlns="http://www.w3.org/2000/svg" xmlns:xlink="http://www.w3.org/1999/xlink" 
	 viewBox="0 0 32 32" xml:space="preserve">
<style type="text/css">
	.st0{fill:none;stroke:#000000;stroke-width:2;stroke-linecap:round;stroke-linejoin:round;stroke-miterlimit:10;}
</style>
<path class="st0" d="M21,12.2c-3.4,0-6.7-0.4-9.6-1.2c-0.2,1.3-0.4,2.7-0.4,4.1C11,23.9,15.5,31,21,31s10-7.1,10-15.9
	c0-1.4-0.1-2.8-0.4-4.1C27.7,11.8,24.4,12.2,21,12.2z"/>
<path class="st0" d="M21,24.1c-1.5,0-2.9-0.4-4-1.1c0.2,2.2,1.9,4,4,4s3.8-1.8,4-4C23.9,23.7,22.5,24.1,21,24.1z"/>
<path class="st0" d="M15,20c0-1.1,0.9-2,2-2s2,0.9,2,2"/>
<path class="st0" d="M23,20c0-1.1,0.9-2,2-2s2,0.9,2,2"/>
<path class="st0" d="M20,12.2c0.7-2.1,1-4.5,1-7c0-1.4-0.1-2.8-0.4-4.1c-3,0.8-6.2,1.2-9.6,1.2S4.3,1.8,1.4,1C1.1,2.3,1,3.7,1,5.1
	C1,13.9,5.5,21,11,21c0.2,0,0.5,0,0.7,0"/>
<path class="st0" d="M11,14.9c-1.5,0-2.9,0.4-4,1.1c0.2-2.2,1.9-4,4-4"/>
<path class="st0" d="M5,7c0,1.1,0.9,2,2,2s2-0.9,2-2"/>
<path class="st0" d="M13,7c0,1.1,0.9,2,2,2s2-0.9,2-2"/>
</svg>