<svg version="1.1" xmlns="http://www.w3.org/2000/svg" viewBox="0 0 100 100" fill="currentColor" class="Icon_svgicon__cZMHq "><path d="M95.91 74.59h-3.82l-3-20.16L98.94 37a6 6 0 0 0-2.58-8.38l-4.61-2.26c3.37-6.56 6.64-14.66 7.51-22.48a3.5 3.5 0 0 0-7-.79C91 14.62 83.34 27.6 79.66 33.22h-9.22V28A3.37 3.37 0 0 0 67 24.51H49.91A3.37 3.37 0 0 0 46.48 28v5.78c-.39.06-.87.13-1.38.23-.87.14-3.21.54-3.68.65a52.33 52.33 0 0 0-19.15 8.83A54.05 54.05 0 0 0 2.69 71.08C.42 78.47-.41 86.82.18 96.57Q.39 100 4.26 100H75.7a3.37 3.37 0 0 0 3.42-3.47v-8.11h11a3.58 3.58 0 0 0 2.54-1 3.2 3.2 0 0 0 .85-3l-.4-2.72h2.8a3.38 3.38 0 0 0 3.43-3.47 3.55 3.55 0 0 0-3.43-3.64Zm-8.43-30.7-1.13-7.46 2.51-4.18 4.09 2ZM53.36 31.54h10.22v1.77H53.36Zm18.89 61.39H7V88.3h65.27v4.63ZM7.43 81.48v-.18a46.48 46.48 0 0 1 43.13-40.95l.22.19v-.21c.86-.06 1.73-.08 2.62-.08h26.49l6.19 41.23Z"></path><path d="M77.35 49A3.63 3.63 0 0 0 74 45.78H50.11c-7.06 0-15.57 5.7-16.49 13.87l-.14 1.05v.29a5.62 5.62 0 0 0 .47 2.21 3.13 3.13 0 0 0 2.94 1.73h38.85a3 3 0 0 0 2.46-1.34 3.82 3.82 0 0 0 .67-3.11ZM42 57.33a12 12 0 0 1 8.16-3.94h21l.53 3.94ZM71.62 68.93a3.45 3.45 0 1 0 3.45 3.45 3.44 3.44 0 0 0-3.45-3.45ZM60.68 68.93a3.45 3.45 0 1 0 3.45 3.45 3.44 3.44 0 0 0-3.45-3.45Z"></path></svg>