<svg version="1.1" xmlns="http://www.w3.org/2000/svg" viewBox="0 0 100 100" fill="currentColor" class="Icon_svgicon__cZMHq "><path d="M91.19 64.62H65.9V27.53A6.26 6.26 0 0 0 69.18 22a6.41 6.41 0 0 0-12.82 0 6.23 6.23 0 0 0 3.27 5.52v37.1H8.81A8.73 8.73 0 0 0 0 73.28v18A8.72 8.72 0 0 0 8.81 100h82.38a8.72 8.72 0 0 0 8.81-8.67v-18a8.73 8.73 0 0 0-8.81-8.71Zm2.48 26.69a2.46 2.46 0 0 1-2.48 2.44H8.81a2.46 2.46 0 0 1-2.48-2.44v-18a2.46 2.46 0 0 1 2.48-2.44h82.38a2.46 2.46 0 0 1 2.48 2.44v18Z"></path><path d="M79.06 73.46A8.5 8.5 0 1 0 87.64 82a8.55 8.55 0 0 0-8.58-8.54Zm0 11a2.54 2.54 0 1 1 2.56-2.54 2.56 2.56 0 0 1-2.56 2.56ZM56.73 73.46A8.5 8.5 0 1 0 65.31 82a8.54 8.54 0 0 0-8.58-8.54Zm0 11a2.54 2.54 0 1 1 2.57-2.54 2.55 2.55 0 0 1-2.57 2.56ZM35.18 43.88a3 3 0 0 0 4.32.12 3 3 0 0 0 .12-4.07 26.75 26.75 0 0 1-.87-35.1 2.91 2.91 0 0 0-.2-4A3 3 0 0 0 36.32 0a3.05 3.05 0 0 0-2.15 1.06 32.59 32.59 0 0 0 1 42.8Z"></path><path d="M41.53 39.46c1.54 1.7 4 .95 5.25-.71a2.13 2.13 0 0 0 .47-1.14 2.17 2.17 0 0 0-.67-1.54 22.16 22.16 0 0 1-3.67-5 20.51 20.51 0 0 1 2.25-21.86 2.95 2.95 0 0 0-2.55-4.75 3 3 0 0 0-2.13 1.12 26.38 26.38 0 0 0 1.05 33.88Z"></path><path d="M47.74 35.12a3.26 3.26 0 0 0 3.81.53 2.38 2.38 0 0 0 1.14-1.12 3.45 3.45 0 0 0-.41-3.27 14.41 14.41 0 0 1-.73-17.87 2.93 2.93 0 0 0-2.61-4.65A3 3 0 0 0 46.76 10a20.35 20.35 0 0 0 1 25.16ZM91.23 1.08A3 3 0 0 0 89.08 0a3.07 3.07 0 0 0-2.23.85 2.91 2.91 0 0 0-.2 4 26.75 26.75 0 0 1-.87 35.1A2.94 2.94 0 0 0 85.9 44a3 3 0 0 0 2.11.84 3.1 3.1 0 0 0 2.21-1 32.53 32.53 0 0 0 1-42.8Z"></path><path d="M84.6 22.78A20.47 20.47 0 0 1 82.47 31a22.79 22.79 0 0 1-3.67 5 2.35 2.35 0 0 0-.67 1.54 2.13 2.13 0 0 0 .47 1.14c1.23 1.68 3.71 2.41 5.25.71A26.32 26.32 0 0 0 84.92 5.6a3 3 0 0 0-4.42-.28 2.93 2.93 0 0 0-.26 3.91 20.58 20.58 0 0 1 4.36 13.55Z"></path><path d="M73.81 35.65a3.26 3.26 0 0 0 3.81-.53 20.28 20.28 0 0 0 1-25.14 2.93 2.93 0 0 0-2.18-1.22 3 3 0 0 0-2.31.84 2.94 2.94 0 0 0-.3 3.81 14.41 14.41 0 0 1-.73 17.87 3.45 3.45 0 0 0-.41 3.27 2.35 2.35 0 0 0 1.12 1.1Z"></path><ellipse cx="35.26" cy="82.2" rx="3" ry="2.98"></ellipse><ellipse cx="27.47" cy="82.2" rx="3" ry="2.98"></ellipse><ellipse cx="19.7" cy="82.2" rx="3" ry="2.98"></ellipse></svg>