<?xml version="1.0" encoding="iso-8859-1"?>
<!-- Uploaded to: SVG Repo, www.svgrepo.com, Generator: SVG Repo Mixer Tools -->
<svg fill="#000000" height="800px" width="800px" version="1.1" id="Layer_1" xmlns="http://www.w3.org/2000/svg" xmlns:xlink="http://www.w3.org/1999/xlink" 
	 viewBox="0 0 512.001 512.001" xml:space="preserve">
<g>
	<g>
		<path d="M184.653,0c-22.084,0-42.853,8.6-58.487,24.219c-8.252,8.252-14.552,17.931-18.727,28.767
			c-1.871,4.857,0.549,10.31,5.405,12.18c4.856,1.871,10.31-0.549,12.18-5.405c3.223-8.365,8.09-15.839,14.464-22.214
			c12.072-12.06,28.112-18.702,45.165-18.702c35.219,0,63.873,28.647,63.873,63.861c0,5.204,4.219,9.423,9.423,9.423
			c5.205,0,9.423-4.219,9.423-9.423C267.372,37.102,230.264,0,184.653,0z"/>
	</g>
</g>
<g>
	<g>
		<path d="M492.93,493.155c-21.134,0-31.16-6.796-42.769-14.664c-12.384-8.395-26.421-17.911-53.342-17.911
			s-40.959,9.516-53.342,17.911c-5.757,3.902-11.194,7.588-17.785,10.268c-4.821,1.961-7.14,7.458-5.179,12.278
			c1.96,4.819,7.459,7.14,12.277,5.179c8.426-3.427,14.951-7.85,21.26-12.126c11.609-7.869,21.635-14.664,42.769-14.664
			c21.134,0,31.16,6.796,42.769,14.664C451.971,502.484,466.008,512,492.93,512c5.205,0,9.423-4.219,9.423-9.423
			C502.352,497.374,498.134,493.155,492.93,493.155z"/>
	</g>
</g>
<g>
	<g>
		<path d="M300.707,493.155c-21.132,0-31.155-6.796-42.761-14.664c-12.384-8.395-26.42-17.911-53.337-17.911
			c-26.916,0-40.952,9.516-53.335,17.911c-11.606,7.869-21.629,14.664-42.76,14.664c-21.122,0-31.14-6.796-42.741-14.663
			c-12.379-8.395-26.41-17.911-53.319-17.911c-5.204,0-9.423,4.219-9.423,9.423s4.219,9.423,9.423,9.423
			c21.122,0,31.14,6.796,42.743,14.663c12.379,8.396,26.41,17.912,53.319,17.912c26.916,0,40.952-9.516,53.335-17.911
			c11.606-7.869,21.629-14.664,42.76-14.664c21.132,0,31.155,6.796,42.763,14.664c12.384,8.395,26.42,17.911,53.337,17.911
			c5.205,0,9.423-4.219,9.423-9.423C310.132,497.375,305.911,493.155,300.707,493.155z"/>
	</g>
</g>
<g>
	<g>
		<path d="M492.93,355.467c-21.134,0.001-31.16-6.796-42.769-14.664c-12.384-8.395-26.421-17.911-53.342-17.911
			c-6.37,0-12.164,0.513-17.713,1.565c-5.112,0.97-8.47,5.902-7.5,11.014c0.97,5.113,5.899,8.468,11.015,7.5
			c4.377-0.832,9.022-1.235,14.199-1.235c21.134,0,31.16,6.796,42.769,14.664c12.384,8.395,26.421,17.911,53.342,17.911
			c5.205,0,9.423-4.219,9.423-9.423S498.135,355.467,492.93,355.467z"/>
	</g>
</g>
<g>
	<g>
		<path d="M83.548,351.071c-6.587-2.681-12.022-6.366-17.775-10.268c-12.379-8.396-26.41-17.912-53.319-17.912
			c-5.204,0-9.423,4.219-9.423,9.423c0,5.204,4.218,9.424,9.421,9.424c21.122,0,31.14,6.796,42.741,14.663
			c6.307,4.277,12.827,8.699,21.25,12.126c1.163,0.474,2.366,0.697,3.549,0.697c3.719,0,7.243-2.216,8.73-5.873
			C90.686,358.53,88.368,353.032,83.548,351.071z"/>
	</g>
</g>
<g>
	<g>
		<path d="M381.089,37.548c12.07-12.06,28.108-18.702,45.164-18.702c35.219,0,63.873,28.647,63.873,63.861
			c0,5.204,4.218,9.423,9.423,9.423c5.205,0,9.423-4.219,9.423-9.423C508.97,37.102,471.863,0,426.252,0
			c-22.084,0-42.854,8.6-58.487,24.219c-15.627,15.625-24.231,36.395-24.231,58.487v73.851H120.781v-67.57
			c0-5.204-4.219-9.423-9.423-9.423c-5.204,0-9.423,4.219-9.423,9.423v335.07c-16.751-1.271-25.841-7.409-36.163-14.409
			c-12.38-8.396-26.41-17.912-53.32-17.912c-5.204,0-9.423,4.219-9.423,9.423s4.219,9.423,9.423,9.423
			c21.122,0,31.14,6.796,42.741,14.663c12.38,8.396,26.41,17.912,53.319,17.912c26.916,0,40.952-9.516,53.335-17.911
			c11.606-7.869,21.63-14.664,42.76-14.664c21.132,0,31.155,6.796,42.763,14.664c12.384,8.395,26.42,17.911,53.337,17.911
			c26.921,0,40.959-9.516,53.343-17.911c11.609-7.869,21.634-14.664,42.769-14.664s31.16,6.796,42.769,14.664
			c12.384,8.395,26.421,17.911,53.343,17.911c5.205,0,9.423-4.219,9.423-9.423s-4.218-9.423-9.423-9.423
			c-21.134,0-31.16-6.796-42.769-14.664c-12.384-8.395-26.421-17.911-53.342-17.911c-14.722,0-25.587,2.848-34.439,6.801V82.706
			C362.38,65.648,369.025,49.61,381.089,37.548z M343.532,409.608c-0.018,0.013-0.038,0.026-0.057,0.039
			c-11.609,7.869-21.635,14.664-42.769,14.664c-21.132,0-31.155-6.796-42.761-14.664c-12.384-8.395-26.42-17.911-53.337-17.911
			c-26.916,0-40.952,9.516-53.335,17.911c-9.094,6.165-17.238,11.655-30.493,13.751v-54.409h222.752V409.608z M343.534,253.35
			h-17.692c-5.205,0-9.423,4.219-9.423,9.423s4.218,9.423,9.423,9.423h17.692v77.947H120.781v-77.947h173.651
			c5.205,0,9.423-4.219,9.423-9.423s-4.218-9.423-9.423-9.423H120.78v-77.947h222.754V253.35z"/>
	</g>
</g>
</svg>